<svg xmlns="http://www.w3.org/2000/svg" width="81.5" height="118.689" viewBox="0 0 81.5 118.689">
	<defs>
		<style>
			.a {
				fill: #121f6b;
			}

			.b {
				fill: #fff;
			}

		</style>
	</defs>
	<rect class="a" width="77.5" height="116.689" transform="translate(2 1)" />
	<path class="b"
		d="M422.01,1187a3.625,3.625,0,0,1-2.907-1.068l1.207-1.273a2.408,2.408,0,0,0,1.712.568c.741,0,1.1-.26,1.1-.726a.713.713,0,0,0-.151-.481.836.836,0,0,0-.505-.212l-.927-.137a2.544,2.544,0,0,1-1.539-.714,2.337,2.337,0,0,1-.525-1.625,2.53,2.53,0,0,1,2.8-2.558,3.291,3.291,0,0,1,2.58.967l-1.182,1.248a1.822,1.822,0,0,0-1.454-.477c-.656,0-.925.4-.925.75a.561.561,0,0,0,.151.375.839.839,0,0,0,.526.239l.927.134a2.513,2.513,0,0,1,1.506.672,2.434,2.434,0,0,1,.567,1.773c0,1.646-1.344,2.543-2.957,2.543"
		transform="translate(-413.776 -1086.972)" />
	<path class="b" d="M432.191,1186.94v-3.2h-2v3.2H428.3v-8.088h1.884v3.108h2v-3.108h1.882v8.088Z" transform="translate(-414.797 -1086.981)" />
	<path class="b" d="M441.934,1186.939l-.355-1.2h-2.356l-.379,1.2h-1.967l2.787-8.087h1.452l2.788,8.087Zm-1.5-5.019-.689,2.155h1.335Z" transform="translate(-415.749 -1086.981)" />
	<path class="b" d="M446.861,1186.94v-8.088h1.882v6.317h3.219v1.771Z" transform="translate(-416.857 -1086.981)" />
	<path class="b" d="M459.231,1186.939l-.355-1.2h-2.354l-.377,1.2h-1.971l2.789-8.087h1.452l2.785,8.087Zm-1.493-5.019-.689,2.155h1.334Z" transform="translate(-417.669 -1086.981)" />
	<path class="b" d="M468.433,1186.94l-1.766-3.318-.645.786v2.532H464.16v-8.088h1.863v2.862l2.215-2.862h2.3l-2.615,3.271,2.7,4.817Z" transform="translate(-418.777 -1086.981)" />
	<path class="b" d="M477.7,1186.939l-.355-1.2h-2.358l-.377,1.2h-1.969l2.787-8.087h1.452l2.79,8.087Zm-1.5-5.019-.689,2.155h1.335Z" transform="translate(-419.719 -1086.981)" />
	<path class="b" d="M486.97,1186.94l-2.454-4.066v4.066h-1.884v-8.088h1.648l2.451,4.067v-4.067h1.886v8.088Z" transform="translate(-420.828 -1086.981)" />
	<path class="b" d="M495.642,1183.643v3.3h-1.884v-3.3l-2.313-4.791H493.5l1.2,2.907,1.195-2.907h2.056Z" transform="translate(-421.806 -1086.981)" />
	<path class="b" d="M452.967,1198.5v-3.132l-.84.769v-1.025l.84-.767h.9v4.155Z" transform="translate(-417.442 -1088.7)" />
	<path class="b"
		d="M458.163,1196.845l-.757,1.646h-.995l.78-1.63a.578.578,0,0,1-.22.031,1.144,1.144,0,0,1-1.049-1.253,1.309,1.309,0,1,1,2.617,0,2.923,2.923,0,0,1-.375,1.207m-.932-1.679c-.225,0-.4.16-.4.472s.179.472.4.472.4-.163.4-.472-.182-.472-.4-.472"
		transform="translate(-417.863 -1088.696)" />
	<path class="b" d="M461.126,1198.5v-3.132l-.838.769v-1.025l.838-.767h.907v4.155Z" transform="translate(-418.348 -1088.7)" />
	<path class="b"
		d="M464.137,1198.491v-.865l1.426-1.632a.6.6,0,0,0,.2-.445.339.339,0,0,0-.352-.383c-.167,0-.364.082-.364.4h-.908a1.21,1.21,0,0,1,1.271-1.27,1.188,1.188,0,0,1,1.261,1.255,1.391,1.391,0,0,1-.486,1.023l-.941,1.048h1.428v.865Z"
		transform="translate(-418.775 -1088.696)" />
	<path class="b" d="M460.155,1141.589h-2.563v18.928h2.563Z" transform="translate(-418.048 -1082.845)" />
	<path class="b"
		d="M413.111,1194.2h81.5V1075.51h-81.5Zm5.327-113.056h70.846V1156h-2.671v-72.042H421.107v69.223h7.97v-21.795h7.893v21.795h2.561v-21.795H442.2V1156h-7.9v-21.8h-2.554V1156H418.438Zm31.55,72.034v-21.729h7.9v21.729h2.563v-46.162h2.669v46.162h2.567V1131.51h2.674v21.667h2.556V1131.51h2.672v21.667h2.559V1131.51h2.67v21.667h2.561v-46.162h2.674V1156H444.758v-48.981h2.669v46.162Zm-1.412-26.136,2.671-2.823,2.615,2.765,2.615-2.765,2.67,2.823-2.67,2.822-2.615-2.764-2.615,2.764Zm15.776,0,2.671-2.823,2.615,2.765,2.615-2.765,2.616,2.767,2.616-2.767,2.671,2.823-2.671,2.822-2.616-2.764-2.616,2.764-2.615-2.764-2.615,2.764Zm-20.82,0-2.671,2.822-2.672-2.822,2.672-2.823Zm48.008,55.863H463.88v.614h27.659v7.443H416.182v-7.443h28.741v-.614H416.182v-21.277h75.357Z"
		transform="translate(-413.111 -1075.51)" />
</svg>
