<svg xmlns="http://www.w3.org/2000/svg" width="81.5" height="118.689" viewBox="0 0 81.5 118.689"><defs><style>.b{fill:#d0d2d3}</style></defs><path fill="#121f6b" d="M2 1h77.5v116.689H2z"/><path class="b" d="M8.234 100.028a3.625 3.625 0 0 1-2.907-1.068l1.207-1.273a2.408 2.408 0 0 0 1.712.568c.741 0 1.1-.26 1.1-.726a.713.713 0 0 0-.151-.481.836.836 0 0 0-.505-.212l-.927-.137a2.544 2.544 0 0 1-1.539-.714 2.337 2.337 0 0 1-.525-1.625 2.53 2.53 0 0 1 2.8-2.558 3.291 3.291 0 0 1 2.58.967l-1.182 1.248a1.822 1.822 0 0 0-1.454-.477c-.656 0-.925.4-.925.75a.561.561 0 0 0 .151.375.839.839 0 0 0 .526.239l.927.134a2.513 2.513 0 0 1 1.506.672 2.434 2.434 0 0 1 .567 1.773c0 1.646-1.344 2.543-2.957 2.543m9.156-.067v-3.2h-2v3.2h-1.891v-8.088h1.884v3.108h2v-3.108h1.882v8.088zm8.791-.001l-.355-1.2h-2.356l-.379 1.2h-1.967l2.787-8.087h1.452l2.788 8.087zm-1.5-5.019l-.689 2.155h1.335zm5.319 5.02v-8.088h1.882v6.317h3.219v1.771zm11.558-.001l-.355-1.2h-2.354l-.377 1.2h-1.971l2.789-8.087h1.452l2.785 8.087zm-1.493-5.019l-.689 2.155h1.334zm9.587 5.02l-1.766-3.318-.645.786v2.532h-1.862v-8.088h1.863v2.862l2.215-2.862h2.3l-2.615 3.271 2.7 4.817zm8.325-.001l-.355-1.2h-2.358l-.377 1.2h-1.969l2.787-8.087h1.452l2.79 8.087zm-1.5-5.019l-.689 2.155h1.335zm9.661 5.02l-2.454-4.066v4.066h-1.884v-8.088h1.648l2.451 4.067v-4.067h1.886v8.088zm7.694-3.297v3.3h-1.884v-3.3l-2.313-4.791h2.055l1.2 2.907 1.195-2.907h2.056zM35.525 109.8v-3.132l-.84.769v-1.025l.84-.767h.9v4.155zm4.775-1.651l-.757 1.646h-.995l.78-1.63a.578.578 0 0 1-.22.031 1.144 1.144 0 0 1-1.049-1.253 1.309 1.309 0 1 1 2.617 0 2.923 2.923 0 0 1-.375 1.207m-.932-1.679c-.225 0-.4.16-.4.472s.179.472.4.472.4-.163.4-.472-.182-.472-.4-.472m3.409 3.329v-3.132l-.838.769v-1.025l.838-.767h.907v4.155zm2.584-.005v-.865l1.426-1.632a.6.6 0 0 0 .2-.445.339.339 0 0 0-.352-.383c-.167 0-.364.082-.364.4h-.908a1.21 1.21 0 0 1 1.271-1.27 1.188 1.188 0 0 1 1.261 1.255 1.391 1.391 0 0 1-.486 1.023l-.941 1.048h1.428v.865zm-3.255-51.051h-2.563v18.928h2.563z"/><path class="b" d="M0 118.69h81.5V0H0zM5.327 5.634h70.846V80.49h-2.671V8.448H7.996v69.223h7.97V55.876h7.893v21.795h2.561V55.876h2.669V80.49h-7.9v-21.8h-2.554v21.8H5.327zm31.55 72.034V55.939h7.9v21.729h2.563V31.506h2.669v46.162h2.567V56h2.674v21.667h2.556V56h2.672v21.667h2.559V56h2.67v21.667h2.561V31.505h2.674V80.49H31.647V31.509h2.669v46.162zm-1.412-26.136l2.671-2.823 2.615 2.765 2.615-2.765 2.67 2.823-2.67 2.822-2.615-2.764-2.615 2.764zm15.776 0l2.671-2.823 2.615 2.765 2.615-2.765 2.616 2.767 2.616-2.767 2.671 2.823-2.671 2.822-2.616-2.764-2.616 2.764-2.615-2.764-2.615 2.764zm-20.82 0l-2.671 2.822-2.672-2.822 2.672-2.823zm48.008 55.863h-27.66v.614h27.659v7.443H3.071v-7.443h28.741v-.614H3.071V86.118h75.357z"/></svg>