<svg xmlns="http://www.w3.org/2000/svg" width="67.29" height="80.882" viewBox="0 0 67.29 80.882"><g fill="#fff"><path d="M42.513 13.006S18.55-.769 5.875 4.078C-6.807 8.921 4.468 34.299 7.921 43.84a190.072 190.072 0 0 1 5.629 19.116s4.694-3.282 25.358-8.3 25.527-12.535 25.527-12.535c8.3-13.451-21.922-29.115-21.922-29.115zm-.663 29.133c-3.759 3.759-18.793 12.212-23.725 5.868-5.544-7.143-4.116-19.49-4.116-19.49a8.88 8.88 0 0 1 6.582-7.16s5.1-2.568 15.391 4c9.745 6.204 8.929 13.721 5.868 16.783z"/><path d="M43.925 9.962S19.962-3.813 7.287 1.034C-5.395 5.877 5.88 31.255 9.333 40.796a190.072 190.072 0 0 1 5.629 19.116s4.694-3.282 25.358-8.3 25.527-12.535 25.527-12.535c8.3-13.468-21.922-29.115-21.922-29.115zm5.68 30.528c-5.408 5.408-21.14 10.34-21.14 10.34s-8.47 3.708-10.8-.816a50.907 50.907 0 0 1-3.4-8.572c-3.759-12.092-3.278-20.665-3.278-20.665C12.382 7.256 30.579 13.6 30.579 13.6c14.32 4.456 20.545 14.1 20.545 14.1s4.111 7.161-1.519 12.79z" opacity=".64"/><path d="M60.047 77.838h1.922V61.681l-1.242.68s-.646.034-.646.884zm-3.302-9.966s-1.735.731-1.854 1.293 0 6.548 0 6.548h-5.578v-5.748s.442-2.3-2.687-2.3-7.636 1.531-9.32 4.133c0 0-.527-1.531-1.361-1.888v5.867h-3.01V61.358a6.093 6.093 0 0 0-1.8 1.088v13.3a1.678 1.678 0 0 0 1.48 2.007h3.33a8.486 8.486 0 0 1-.6 3.129 4.655 4.655 0 0 0 2.092-3.129h17.364s1.922.323 1.973-2.177c.025-2.483-.029-7.704-.029-7.704zm-9.2 3.3v4.575h-9.643c.646-5.068 6.395-6.038 8.112-6.038 1.737-.001 1.531 1.462 1.531 1.462zm-25.713 6.547h2.806s3.129-1.854 3.129-7.84V61.8s-1.854.6-1.888 1.122v7.6a5.3 5.3 0 0 1-.561 2.857 64.985 64.985 0 0 0-3.452-7.517 3.318 3.318 0 0 1-.323-2.857s-2.058.85-1.037 3.895c1 3.061 3.418 7.551 3.861 8.674a13.324 13.324 0 0 1-2.535 2.145zM6.237 75.746H16.56v-5.272a4.722 4.722 0 0 1 1.922-1.037v6.276a1.909 1.909 0 0 1-2.126 2.092H5.71a3.72 3.72 0 0 1-3.1-2.942c-.85-2.806.527-4.218.527-4.218s.396 5.101 3.1 5.101zm4.696-7.665s-.051-.6.8-.6h1.088v1.173s.136.833-.884.85c-1.054.017-.986.017-.986.017zm-2.568 0s-.051-.6.8-.6h1.088v1.173s.136.833-.884.85c-1.054.017-.986.017-.986.017zm46.787-3.3s-.051-.6.8-.6h1.088v1.173s.136.833-.884.85l-1 .017zm-2.568 0s-.051-.6.8-.6h1.088v1.173s.136.833-.884.85c-1.054.017-.986.017-.986.017z"/></g></svg>