<svg xmlns="http://www.w3.org/2000/svg" width="85" height="75.813" viewBox="0 0 85 75.813"><g fill="#fff"><path d="M32.406 9.893a8.418 8.418 0 0 0-.1 1.666 10.1 10.1 0 0 0 20.2 0 8.958 8.958 0 0 0-.1-1.666h-20zm7.71 33.428h4.582V24.993h-4.582zm-7.706-4.165a3.815 3.815 0 0 0 3.853 4.166h.729V24.993H32.41zm15.517-14.163v18.224h.833a3.848 3.848 0 0 0 3.85-3.749V24.993z"/><path d="M55.216 0H29.702a6.155 6.155 0 0 0-6.144 6.144v25.931c0 3.124 1.874 5.832 5 6.144V5.1H56.57v33.22a5.92 5.92 0 0 0 5-6.144V6.144A6.408 6.408 0 0 0 55.216 0z"/></g><path fill="#fff" d="M.023 67.273h84.873v1.562H.023zm12.499 8.331h.937v-5.207h-.937zm49.672-15.725a12.95 12.95 0 0 1-2.083 0 2.337 2.337 0 0 0 2.4.833 2.124 2.124 0 0 0 1.77-1.354c.312-.729.208-1.77-.521-1.666s-.937-.208-.937-.521c0-.208.208-.417.625-.521a.717.717 0 0 0 .521-.417v-.729a.31.31 0 0 0-.417-.312 2.422 2.422 0 0 0-1.354 1.354 3.073 3.073 0 0 0-.208 2.083c.312.417 1.25.208 1.25.625.099.209-.218.417-1.046.625zm7.394-3.124a.228.228 0 0 0-.312.1c-.1.1-.625.833-.625.833s-.1.208.1.208a10.148 10.148 0 0 0 1.146.521l.729-.937a.228.228 0 0 0-.1-.312 5.136 5.136 0 0 0-.938-.413zm-.937-.937a34.5 34.5 0 0 1 8.331-4.27l.625-1.146a37.685 37.685 0 0 0-8.852 4.166 1.657 1.657 0 0 0-.521 1.041c.104.209.312.313.416.209zm14.684 7.81c0 .208 0 .417.1.417.729-.1 1.041-2.5 1.041-5a48.551 48.551 0 0 0-.521-5.207c-.1-.417-.1-.625.1-.833s.521 0 .625-.1a.144.144 0 0 0 0-.208s-1.354-2.4-1.458-2.5a.144.144 0 0 0-.208 0l-.722 1.143a36.549 36.549 0 0 1 .937 5.623 36.2 36.2 0 0 1 .105 6.665zM8.25 71.335h1.354v4.374h.937v-4.374h1.354v-.937H8.25zm1.666-6.245c.1 0 1.041-.729 1.979-1.25a.63.63 0 0 0 .312-.625 7.519 7.519 0 0 0-2.4 1.458c-.307.205.109.417.109.417zm-4.061 5.307l-1.77 5.207h.937l.417-1.146h1.874l.417 1.146h.937l-1.77-5.207zm-.1 3.124l.625-1.979.625 1.979zm27.7-16.975c-.312.1-.521-.729-.625-.937 0-.208-.1-.417-.417-.312s-.1.417-.1.625a4.244 4.244 0 0 1 .208.729.2.2 0 0 1-.208.208c-.521.1-.521-1.041-.521-1.041s-.1-.208-.208-.208a.333.333 0 0 0-.312.312s.1.417.312 1.146a.708.708 0 0 0 1.038.522c.312-.1.417-.521.521-.521.1-.1.729.1.833-.208a2.011 2.011 0 0 0-.521-1.77.288.288 0 0 0-.417 0c.413.415.83 1.352.413 1.456zM2.731 73.938L.856 70.397H.022v5.207h.834v-3.436l1.766 3.436h.937v-5.207h-.828zm22.077-9.685c0 .208 0 .417.1.417.729-.1 1.041-2.5 1.041-5a30.629 30.629 0 0 0-.521-5.207c-.1-.417-.1-.625.1-.833s.521 0 .625-.1a.144.144 0 0 0 0-.208s-1.354-2.4-1.458-2.5a.144.144 0 0 0-.208 0l-.729 1.146a36.549 36.549 0 0 1 .937 5.623 36.2 36.2 0 0 1 .113 6.662zm3.332-7.6a9.479 9.479 0 0 0 3.957-3.02l.417.312s.521-.208.417-1.354l-.312-.312s.312-.937-.208-1.354-1.25.208-1.458.417-.625 1.146.521 2.083a9.6 9.6 0 0 1-4.166 3.228.1.1 0 0 0-.1.1c-.005.106.203.21.932-.102zm3.541-5c.312-.312.729.312.1.625-.1-.001-.412-.417-.1-.626zm17.391 1.353c.1 0 1.354-1.041 2.6-1.666a.931.931 0 0 0 .417-.833 10.123 10.123 0 0 0-3.228 1.874c-.31.309.107.625.211.625zM1.064 54.568a6.485 6.485 0 0 0 2.916-2.291l.312.208s.312-.1.312-1.041l-.208-.208s.208-.729-.1-1.041c-.417-.312-.937.1-1.041.312s-.521.833.417 1.562a7.283 7.283 0 0 1-3.124 2.4.1.1 0 0 0-.1.1q-.165.312.616-.001zm2.6-3.749c.208-.208.625.312.1.521-.096 0-.409-.312-.096-.521zm54.985 5.415a.1.1 0 0 0-.1.1c0 .1.208.312.937 0a9.479 9.479 0 0 0 3.957-3.02l.417.312s.521-.208.417-1.354l-.312-.312s.312-.937-.208-1.354-1.25.208-1.458.417-.625 1.146.521 2.083a9.985 9.985 0 0 1-4.167 3.129zm4.273-4.894c.312-.312.729.312.1.625 0 .104-.308-.417-.1-.625zm-11.767 1.458a2 2 0 0 0-1.146 1.562c0 .729.937 1.041.937 1.041a1.279 1.279 0 0 0-.208.937c.1.312.208.208.208.208A2.321 2.321 0 0 1 52.3 55.19c.312-.1.312-.208.312-.208s.312-1.041.1-1.041a6.575 6.575 0 0 0-.937.417c-.208.1-.729.208-.833 0-.312-.417.312-.417.417-.417a1.523 1.523 0 0 0 .833-.312c.208-.1.1-.312 0-.417a.806.806 0 0 0-1.037-.414zm-46.654.833a4.245 4.245 0 0 1 .208.729.2.2 0 0 1-.208.208c-.521.1-.521-1.041-.521-1.041s-.1-.208-.208-.208a.333.333 0 0 0-.312.312s.1.417.312 1.146a.708.708 0 0 0 1.041.521c.312-.1.417-.521.521-.521s.729.1.833-.208a2.011 2.011 0 0 0-.521-1.77.288.288 0 0 0-.417 0c.312.417.729 1.354.417 1.562-.312.1-.521-.729-.625-.937 0-.208-.1-.417-.417-.312-.416-.002-.207.311-.103.519zM16.269 70.29a2.079 2.079 0 0 0-.937.208 2.178 2.178 0 0 0-.625.417 1.678 1.678 0 0 0-.417.729 4.622 4.622 0 0 0-.208 1.354 3 3 0 0 0 .625 1.979 2.038 2.038 0 0 0 3.124 0 3 3 0 0 0 .625-1.979 2.819 2.819 0 0 0-.625-1.979 1.874 1.874 0 0 0-1.562-.729zm.833 4.061a1.015 1.015 0 0 1-.937.417 1.131 1.131 0 0 1-.937-.417 3.089 3.089 0 0 1 0-2.708 1.015 1.015 0 0 1 .937-.417 1.131 1.131 0 0 1 .937.417 2.363 2.363 0 0 1 .312 1.354 1.425 1.425 0 0 1-.312 1.358zm47.9-1.041h2.291v-.937h-2.288V71.23h2.4v-.94h-3.337v5.21h3.437v-.937h-2.5v-1.25zm5.415.417h1.045v.625a2.277 2.277 0 0 1-.521.312 1.321 1.321 0 0 1-.625.1 1.015 1.015 0 0 1-.937-.417 3.089 3.089 0 0 1 0-2.708 1.015 1.015 0 0 1 .937-.417.88.88 0 0 1 .625.208.63.63 0 0 1 .312.625l.937-.208a2.057 2.057 0 0 0-.625-1.146 1.767 1.767 0 0 0-1.353-.411 2.613 2.613 0 0 0-1.041.208 1.838 1.838 0 0 0-.833.937 3.326 3.326 0 0 0-.316 1.462 2.883 2.883 0 0 0 .312 1.354 1.838 1.838 0 0 0 .833.937 2.221 2.221 0 0 0 1.25.312 4.429 4.429 0 0 0 1.146-.208 5.814 5.814 0 0 0 .833-.521V72.69h-1.974zm-11.868 1.877h.937v-2.187h1.874v-.937h-1.874v-1.25h2.187v-.94h-3.124zm-2.916-5.314a2.079 2.079 0 0 0-.937.208 2.178 2.178 0 0 0-.625.417 1.678 1.678 0 0 0-.417.729 4.622 4.622 0 0 0-.208 1.354 3 3 0 0 0 .625 1.979 2.038 2.038 0 0 0 3.124 0 3 3 0 0 0 .625-1.979 2.819 2.819 0 0 0-.625-1.979 1.644 1.644 0 0 0-1.562-.729zm.937 4.061a1.015 1.015 0 0 1-.937.417 1.272 1.272 0 0 1-.937-.417 3.089 3.089 0 0 1 0-2.708 1.015 1.015 0 0 1 .937-.417 1.131 1.131 0 0 1 .937.417 3.089 3.089 0 0 1 0 2.708zm18.224-1.871l-1.041-2.083h-1.041l1.666 3.02v2.187h.937v-2.187l1.666-3.02H75.94zm4.79-22.182a.144.144 0 0 0-.208 0l-.729 1.146a29.448 29.448 0 0 1 .833 4.478l.1 1.041v.1c0 .312.1.625.1.833l.208 1.979s.312 1.562-.937 1.77a1.069 1.069 0 0 1-1.25-1.458c.1-.208 0-.312-.208-.208-1.666 1.354-2.916 2.187-4.27 2.187-2.187 0-1.979-1.354-1.979-1.77s-.312-.312-.417-.208-.937 1.979-2.187 1.874c-1.562-.208-1.25-1.979-1.25-2.5a88.639 88.639 0 0 0-.729-8.852c0-.208-.208-.1-.208-.1l-.625 1.146a56.038 56.038 0 0 1 .729 8.435 5.437 5.437 0 0 1-4.478 2.5 4.181 4.181 0 0 1-2.916-.833 1.465 1.465 0 0 1-.625-1.25 3.051 3.051 0 0 1 .729-1.666s0-.312-.208-.417-.833.312-1.146 2.291c-.417 2.083 1.77 3.124 3.124 3.228a6.42 6.42 0 0 0 5.623-2.291c.1-.1.521-.521.521.208a1.8 1.8 0 0 0 3.437.729c.1-.1.312-.208.417.1a2.85 2.85 0 0 0 2.916 1.041c2.5-.521 3.02-1.77 3.332-1.77.521 0 .208 1.25 1.666 1.25 1.77 0 2.083-2.291 2.083-2.5 0-.1-.1-1.666-.312-3.332a29.548 29.548 0 0 0-.312-3.332c-.208-.521-.208-.833 0-1.041s.521 0 .625-.1a.144.144 0 0 0 0-.208s-1.24-2.291-1.448-2.499zm-2.082 13.643c-.208-.1-.833-.312-.833-.312a.228.228 0 0 0-.312.1c-.1.1-.625.833-.625.833s-.1.208.1.208a10.147 10.147 0 0 0 1.146.521l.729-.937a.416.416 0 0 0-.205-.413zM53.134 60.09l1.77-1.77a57.246 57.246 0 0 1 0 6.04c-.208 1.146.729-.521.833-1.874s0-5.1 0-5.1 4.582-4.478 5.1-6.665c.1-.521-.208-.417-.417-.208a46.37 46.37 0 0 1-4.79 5.623l-.312-2.4s.1-.312.312-.208.208.208.417.208a.323.323 0 0 0 .1-.208l-1.146-2.812s-.1-.208-.208-.1a9.633 9.633 0 0 0-.521 1.041 19.218 19.218 0 0 1 .625 5.207l-2.4 2.291-5.415-5s-.208-.312.1-.312.312-.208.1-.417-2.708-1.77-2.708-1.77l.1 1.562 6.898 6.872a3.305 3.305 0 0 0-1.25 2.4c0 1.458.521 1.562 1.146 1.562a2.1 2.1 0 0 0 2.083-2.083 2.179 2.179 0 0 0-.417-1.879zm-.937 2.4c-.625.1-.833-.1-.833-.312a1.922 1.922 0 0 1 1.146-1.354s.625.521.625.729c-.213.201-.313.826-.939.93zm29.159 7.915v.937h1.354v4.374h.937v-4.381h1.354v-.937zm-1.354.1c-.208 0-.521-.1-1.041-.1h-1.459v5.207h.937v-1.986h.625a2.311 2.311 0 0 0 .937-.1c.208 0 .312-.1.521-.208a1.04 1.04 0 0 0 .417-.521 2.03 2.03 0 0 0 .1-.833 1.759 1.759 0 0 0-.312-1.041c-.305-.213-.517-.422-.726-.422zm-.208 1.874c-.1.1-.208.208-.312.208-.1.1-.417.1-.729.1h-.521V71.23h1.04a.789.789 0 0 1 .417.208.78.78 0 0 1 .1.521c.108.209.108.313.004.417zm-41.136-8.438a.658.658 0 0 0 .417-.833 10.123 10.123 0 0 0-3.228 1.874c-.312.312.1.625.208.625a16.214 16.214 0 0 1 2.603-1.666zm-9.476 6.456h-.937v5.207h3.124v-.833h-2.187zm7.5 2.5a.813.813 0 0 0 .417-.417 1.48 1.48 0 0 0 .208-.625 1.321 1.321 0 0 0-.1-.625 1.438 1.438 0 0 0-.312-.417.8.8 0 0 0-.521-.208h-2.6v5.207h2.708a1.48 1.48 0 0 0 .625-.208 1.04 1.04 0 0 0 .417-.521 1.544 1.544 0 0 0 .1-.729 2.451 2.451 0 0 0-.208-.833c-.32-.416-.528-.624-.736-.624zm-2.085-1.667h1.354c.1 0 .312.1.312.208.1.1.1.208.1.417s0 .312-.1.417a.541.541 0 0 1-.417.208h-1.25zm1.874 3.228c-.1.1-.208.208-.312.208h-1.458v-1.353h.729c.417 0 .729 0 .833.1.1 0 .208.1.312.208s.1.208.1.417c-.099.212-.204.317-.204.421zm-11.455-4.061l-1.77 5.207h.937l.417-1.146h1.77l.417 1.146h.935l-1.77-5.207zm-.208 3.124l.625-1.979.625 1.979zm26.555-3.124h-1.25l-1.874 2.293v-2.293h-.937v5.207h.937v-1.562l.729-.833 1.25 2.5h1.146l-1.77-3.228zm-26.868-8.851c.208-1.666-.937-2.083-1.458-2.083-.521-.1-.625.208-1.146.208-.1 0-.208 0-.208-.1a47.122 47.122 0 0 0-.312-5.519c-.1-.417-.1-.729.1-.833.208-.208.521 0 .625-.1a.144.144 0 0 0 0-.208s-1.354-2.4-1.458-2.5a.144.144 0 0 0-.208 0l-.625 1.146a34.731 34.731 0 0 1 .729 3.853 40.7 40.7 0 0 1 .312 4.27c-.1 1.25-1.25 1.146-1.25 1.041a9.385 9.385 0 0 0 .208-1.354 2.415 2.415 0 0 0-2.4-1.874c-1.562-.1-2.812 1.354-3.124 1.77a5.735 5.735 0 0 0-.937 1.458 2.277 2.277 0 0 0-1.666-.729c-.833.1-1.25.312-2.291 1.354-.937.833-2.291 3.02-3.645 2.916s-.937-2.291-.937-2.291a8.136 8.136 0 0 0 2.916-1.146c1.051-.735 2.196-1.779 2.302-2.716.1-.729-.417-1.25-1.25-1.354-.937-.1-1.354.1-1.77-.208-.208-.1 0-.625.312-.937.937-1.041 1.562-1.146 1.77-1.146.312 0 0 .417.417.417.417.1.521-.208.625-.833.1-.729-.1-1.146-.625-1.041a4.146 4.146 0 0 0-2.4 1.146 4.325 4.325 0 0 0-1.146 2.4c-.1.833.312 1.25 1.146 1.458s1.458-.1 1.666.312c.208.312-1.562 1.979-4.061 2.4a3.7 3.7 0 0 1-3.437-1.354c-.729-.833-.208-2.083-.1-2.5.312-.729.937-2.187.208-1.666S-.602 58.421.335 59.879c1.354 1.979 4.166 1.874 4.166 1.874a6.294 6.294 0 0 0-.625 1.874 1.659 1.659 0 0 0 1.458 1.77c1.25 0 1.874-.729 3.02-1.77a21.5 21.5 0 0 1 2.6-2.187c.729-.312 1.562.417 1.562.417v.417a2.119 2.119 0 0 0 .1.521l.417-.417c1.458 1.041 3.02.521 3.957.312a21.571 21.571 0 0 0 3.332-.937c.312-.1.625-.1.729-.208.312-.1.417.625.729.937a1.406 1.406 0 0 0 1.041.521 1.651 1.651 0 0 0 1.674-1.457zm-8.123-.208c-.729.208-1.979.521-2.187-.208a3 3 0 0 1 .625-1.041c.625-.833 1.562-1.562 2.4-1.354a2.168 2.168 0 0 1 1.562 1.146c-.004.519-1.05 1.04-2.399 1.456zm6.457.208c-.312-.208-.312-.625-.208-.625a.5.5 0 0 1 .625.208c.208.208-.104.729-.417.417zm-1.25 2.291a.63.63 0 0 0 .312-.625 7.519 7.519 0 0 0-2.4 1.458c-.312.208.1.417.1.417a17.978 17.978 0 0 1 1.989-1.25zm.312 10.1l-1.869-3.54h-.833v5.207h.833v-3.436l1.874 3.437h.937v-5.208h-.941zm26.66-11.871c0-1.77-1.979-1.874-1.979-1.874a3.39 3.39 0 0 0 .729-2.083 3 3 0 0 0-.833-2.5 8.165 8.165 0 0 0-1.041 3.02c-.208.937-.625 1.041-.625 1.041-.417.312-1.146.625-3.541.937-2.291.312-3.645-.729-4.166-1.77s-1.146-7.81-1.25-8.123c-.1-.417-.208-.208-.312-.1a17.753 17.753 0 0 0-.208 3.124c.1 1.25.521 2.812.625 3.853a2.334 2.334 0 0 1-1.666 2.5c-.521.1-.625.312-.625.312s-.208 1.146-.208 1.25c.1.1 1.77 0 1.979.1.208 0 .729.1.521.417a5.732 5.732 0 0 1-3.645 1.979 6.18 6.18 0 0 1-2.4 0 2.321 2.321 0 0 1-1.458-1.041c-1.146-1.77.312-3.645.1-3.853-.312-.521-1.458 1.562-1.458 2.6a3.626 3.626 0 0 0 1.77 3.02 5.972 5.972 0 0 0 4.79 0c2.6-1.146 3.332-3.02 3.228-3.541a1.067 1.067 0 0 0-.833-.729c-.208 0-.208-.208-.1-.417.1-.1.208-.208.521 0a4.968 4.968 0 0 0 3.756 1.878 10.144 10.144 0 0 0 3.437-.521c.208-.1 1.041-.625 1.146 0a2.362 2.362 0 0 0 2.083 2.291c.414-.104 1.663.105 1.663-1.77zm-2.187-4.27c.1-.1.417.417.208.833s-.417.729-.729.521c-.312-.312.209-1.249.522-1.353zm.208 4.374c-.208-.1-.625-.521-.417-.729.1-.1 1.25 0 1.354.625.105.313-.728.313-.936.104zm-1.041 11.768l-1.874-3.541h-.835v5.207h.833v-3.436l1.77 3.437h.937v-5.208h-.833v3.541zm-5.936-3.541l-1.773 5.207h.937l.417-1.146h1.77l.417 1.146h1.041l-1.77-5.207zm-.208 3.124l.625-1.979.625 1.979z"/></svg>