<svg xmlns="http://www.w3.org/2000/svg" width="85" height="75.813" viewBox="0 0 85 75.813"><g transform="translate(0.022)"><g transform="translate(23.536)"><g transform="translate(8.748 9.893)"><path d="M31.1,9.5a8.418,8.418,0,0,0-.1,1.666,10.1,10.1,0,0,0,20.2,0A8.958,8.958,0,0,0,51.1,9.5H31.1Z" transform="translate(-31 -9.5)" fill="#fff"/><path d="M38.806,42.328h4.582V24H38.806ZM31.1,38.163a3.815,3.815,0,0,0,3.853,4.166h.729V24H31.1ZM46.617,24V42.224h.833A3.848,3.848,0,0,0,51.3,38.475V24Z" transform="translate(-30.996 -8.9)" fill="#fff"/></g><path d="M54.258,0H28.744A6.155,6.155,0,0,0,22.6,6.144V32.075c0,3.124,1.874,5.832,5,6.144V5.1H55.612v33.22a5.92,5.92,0,0,0,5-6.144V6.144A6.408,6.408,0,0,0,54.258,0Z" transform="translate(-22.6)" fill="#fff"/></g><g transform="translate(-0.022 50.082)"><g transform="translate(0.023 17.191)"><rect width="84.873" height="1.562" fill="#fff"/></g><path d="M12.5,73.614h.937V68.407H12.5ZM62.172,57.889a12.95,12.95,0,0,1-2.083,0,2.337,2.337,0,0,0,2.4.833,2.124,2.124,0,0,0,1.77-1.354c.312-.729.208-1.77-.521-1.666s-.937-.208-.937-.521c0-.208.208-.417.625-.521a.717.717,0,0,0,.521-.417v-.729a.31.31,0,0,0-.417-.312,2.422,2.422,0,0,0-1.354,1.354,3.073,3.073,0,0,0-.208,2.083c.312.417,1.25.208,1.25.625C63.317,57.473,63,57.681,62.172,57.889Zm7.394-3.124a.228.228,0,0,0-.312.1c-.1.1-.625.833-.625.833s-.1.208.1.208a10.148,10.148,0,0,0,1.146.521l.729-.937a.228.228,0,0,0-.1-.312A5.136,5.136,0,0,0,69.566,54.765Zm-.937-.937a34.5,34.5,0,0,1,8.331-4.27l.625-1.146a37.685,37.685,0,0,0-8.852,4.166,1.657,1.657,0,0,0-.521,1.041C68.316,53.828,68.524,53.932,68.628,53.828Zm14.684,7.81c0,.208,0,.417.1.417.729-.1,1.041-2.5,1.041-5a48.551,48.551,0,0,0-.521-5.207c-.1-.417-.1-.625.1-.833s.521,0,.625-.1a.144.144,0,0,0,0-.208s-1.354-2.4-1.458-2.5a.144.144,0,0,0-.208,0L82.27,49.35a36.549,36.549,0,0,1,.937,5.623A36.2,36.2,0,0,1,83.312,61.638ZM8.228,69.345H9.582v4.374h.937V69.345h1.354v-.937H8.228ZM9.894,63.1c.1,0,1.041-.729,1.979-1.25a.63.63,0,0,0,.312-.625,7.519,7.519,0,0,0-2.4,1.458C9.478,62.888,9.894,63.1,9.894,63.1ZM5.833,68.407l-1.77,5.207H5l.417-1.146H7.291l.417,1.146h.937l-1.77-5.207Zm-.1,3.124.625-1.979.625,1.979Zm27.7-16.975c-.312.1-.521-.729-.625-.937,0-.208-.1-.417-.417-.312s-.1.417-.1.625a4.244,4.244,0,0,1,.208.729.2.2,0,0,1-.208.208c-.521.1-.521-1.041-.521-1.041s-.1-.208-.208-.208a.333.333,0,0,0-.312.312s.1.417.312,1.146A.708.708,0,0,0,32.6,55.6c.312-.1.417-.521.521-.521.1-.1.729.1.833-.208a2.011,2.011,0,0,0-.521-1.77.288.288,0,0,0-.417,0C33.429,53.516,33.846,54.453,33.429,54.557ZM2.709,71.948.834,68.407H0v5.207H.834V70.178L2.6,73.614h.937V68.407H2.709Zm22.077-9.685c0,.208,0,.417.1.417.729-.1,1.041-2.5,1.041-5a30.629,30.629,0,0,0-.521-5.207c-.1-.417-.1-.625.1-.833s.521,0,.625-.1a.144.144,0,0,0,0-.208s-1.354-2.4-1.458-2.5a.144.144,0,0,0-.208,0l-.729,1.146a36.549,36.549,0,0,1,.937,5.623A36.2,36.2,0,0,1,24.786,62.263Zm3.332-7.6a9.479,9.479,0,0,0,3.957-3.02l.417.312s.521-.208.417-1.354l-.312-.312s.312-.937-.208-1.354-1.25.208-1.458.417-.625,1.146.521,2.083a9.6,9.6,0,0,1-4.166,3.228.1.1,0,0,0-.1.1C27.181,54.869,27.389,54.973,28.118,54.661Zm3.541-5c.312-.312.729.312.1.625C31.659,50.287,31.347,49.871,31.659,49.662ZM49.05,51.016c.1,0,1.354-1.041,2.6-1.666a.931.931,0,0,0,.417-.833,10.123,10.123,0,0,0-3.228,1.874C48.529,50.7,48.946,51.016,49.05,51.016ZM1.042,52.578a6.485,6.485,0,0,0,2.916-2.291l.312.208s.312-.1.312-1.041l-.208-.208s.208-.729-.1-1.041c-.417-.312-.937.1-1.041.312s-.521.833.417,1.562a7.283,7.283,0,0,1-3.124,2.4.1.1,0,0,0-.1.1Q.261,52.891,1.042,52.578Zm2.6-3.749c.208-.208.625.312.1.521C3.646,49.35,3.333,49.038,3.646,48.829Zm54.985,5.415a.1.1,0,0,0-.1.1c0,.1.208.312.937,0a9.479,9.479,0,0,0,3.957-3.02l.417.312s.521-.208.417-1.354l-.312-.312s.312-.937-.208-1.354-1.25.208-1.458.417-.625,1.146.521,2.083A9.985,9.985,0,0,1,58.631,54.245ZM62.9,49.35c.312-.312.729.312.1.625C63,50.079,62.692,49.558,62.9,49.35ZM51.133,50.808a2,2,0,0,0-1.146,1.562c0,.729.937,1.041.937,1.041a1.279,1.279,0,0,0-.208.937c.1.312.208.208.208.208A2.321,2.321,0,0,1,52.278,53.2c.312-.1.312-.208.312-.208s.312-1.041.1-1.041a6.575,6.575,0,0,0-.937.417c-.208.1-.729.208-.833,0-.312-.417.312-.417.417-.417a1.523,1.523,0,0,0,.833-.312c.208-.1.1-.312,0-.417A.806.806,0,0,0,51.133,50.808Zm-46.654.833a4.245,4.245,0,0,1,.208.729.2.2,0,0,1-.208.208c-.521.1-.521-1.041-.521-1.041s-.1-.208-.208-.208a.333.333,0,0,0-.312.312s.1.417.312,1.146a.708.708,0,0,0,1.041.521c.312-.1.417-.521.521-.521s.729.1.833-.208a2.011,2.011,0,0,0-.521-1.77.288.288,0,0,0-.417,0c.312.417.729,1.354.417,1.562-.312.1-.521-.729-.625-.937,0-.208-.1-.417-.417-.312C4.166,51.12,4.375,51.433,4.479,51.641ZM16.247,68.3a2.079,2.079,0,0,0-.937.208,2.178,2.178,0,0,0-.625.417,1.678,1.678,0,0,0-.417.729,4.622,4.622,0,0,0-.208,1.354,3,3,0,0,0,.625,1.979,2.038,2.038,0,0,0,3.124,0,3,3,0,0,0,.625-1.979,2.819,2.819,0,0,0-.625-1.979A1.874,1.874,0,0,0,16.247,68.3Zm.833,4.061a1.015,1.015,0,0,1-.937.417,1.131,1.131,0,0,1-.937-.417,3.089,3.089,0,0,1,0-2.708,1.015,1.015,0,0,1,.937-.417,1.131,1.131,0,0,1,.937.417,2.363,2.363,0,0,1,.312,1.354A1.425,1.425,0,0,1,17.08,72.365Zm47.9-1.041h2.291v-.937H64.983V69.24h2.4V68.3H64.046V73.51h3.437v-.937h-2.5v-1.25Zm5.415.417H71.44v.625a2.277,2.277,0,0,1-.521.312,1.321,1.321,0,0,1-.625.1,1.015,1.015,0,0,1-.937-.417,3.089,3.089,0,0,1,0-2.708,1.015,1.015,0,0,1,.937-.417.88.88,0,0,1,.625.208.63.63,0,0,1,.312.625l.937-.208a2.057,2.057,0,0,0-.625-1.146A1.767,1.767,0,0,0,70.19,68.3a2.613,2.613,0,0,0-1.041.208,1.838,1.838,0,0,0-.833.937A3.326,3.326,0,0,0,68,70.907a2.883,2.883,0,0,0,.312,1.354,1.838,1.838,0,0,0,.833.937,2.221,2.221,0,0,0,1.25.312,4.429,4.429,0,0,0,1.146-.208,5.814,5.814,0,0,0,.833-.521V70.7H70.4ZM58.527,73.614h.937V71.427h1.874V70.49H59.464V69.24h2.187V68.3H58.527ZM55.611,68.3a2.079,2.079,0,0,0-.937.208,2.178,2.178,0,0,0-.625.417,1.678,1.678,0,0,0-.417.729,4.622,4.622,0,0,0-.208,1.354,3,3,0,0,0,.625,1.979,2.038,2.038,0,0,0,3.124,0,3,3,0,0,0,.625-1.979,2.819,2.819,0,0,0-.625-1.979A1.644,1.644,0,0,0,55.611,68.3Zm.937,4.061a1.015,1.015,0,0,1-.937.417,1.272,1.272,0,0,1-.937-.417,3.089,3.089,0,0,1,0-2.708,1.015,1.015,0,0,1,.937-.417,1.131,1.131,0,0,1,.937.417,3.089,3.089,0,0,1,0,2.708ZM74.772,70.49l-1.041-2.083H72.69l1.666,3.02v2.187h.937V71.427l1.666-3.02H75.918Zm4.79-22.182a.144.144,0,0,0-.208,0l-.729,1.146a29.448,29.448,0,0,1,.833,4.478l.1,1.041v.1c0,.312.1.625.1.833l.208,1.979s.312,1.562-.937,1.77a1.069,1.069,0,0,1-1.25-1.458c.1-.208,0-.312-.208-.208-1.666,1.354-2.916,2.187-4.27,2.187-2.187,0-1.979-1.354-1.979-1.77s-.312-.312-.417-.208-.937,1.979-2.187,1.874c-1.562-.208-1.25-1.979-1.25-2.5a88.639,88.639,0,0,0-.729-8.852c0-.208-.208-.1-.208-.1l-.625,1.146a56.038,56.038,0,0,1,.729,8.435,5.437,5.437,0,0,1-4.478,2.5,4.181,4.181,0,0,1-2.916-.833,1.465,1.465,0,0,1-.625-1.25,3.051,3.051,0,0,1,.729-1.666s0-.312-.208-.417-.833.312-1.146,2.291c-.417,2.083,1.77,3.124,3.124,3.228a6.42,6.42,0,0,0,5.623-2.291c.1-.1.521-.521.521.208a1.8,1.8,0,0,0,3.437.729c.1-.1.312-.208.417.1a2.85,2.85,0,0,0,2.916,1.041c2.5-.521,3.02-1.77,3.332-1.77.521,0,.208,1.25,1.666,1.25,1.77,0,2.083-2.291,2.083-2.5,0-.1-.1-1.666-.312-3.332a29.548,29.548,0,0,0-.312-3.332c-.208-.521-.208-.833,0-1.041s.521,0,.625-.1a.144.144,0,0,0,0-.208S79.771,48.517,79.563,48.309ZM77.48,61.951c-.208-.1-.833-.312-.833-.312a.228.228,0,0,0-.312.1c-.1.1-.625.833-.625.833s-.1.208.1.208a10.147,10.147,0,0,0,1.146.521l.729-.937A.416.416,0,0,0,77.48,61.951ZM53.112,58.1l1.77-1.77a57.246,57.246,0,0,1,0,6.04c-.208,1.146.729-.521.833-1.874s0-5.1,0-5.1,4.582-4.478,5.1-6.665c.1-.521-.208-.417-.417-.208a46.37,46.37,0,0,1-4.79,5.623l-.312-2.4s.1-.312.312-.208.208.208.417.208a.323.323,0,0,0,.1-.208l-1.146-2.812s-.1-.208-.208-.1a9.633,9.633,0,0,0-.521,1.041,19.218,19.218,0,0,1,.625,5.207l-2.4,2.291-5.415-5s-.208-.312.1-.312.312-.208.1-.417-2.708-1.77-2.708-1.77l.1,1.562L51.55,58.1a3.305,3.305,0,0,0-1.25,2.4c0,1.458.521,1.562,1.146,1.562a2.1,2.1,0,0,0,2.083-2.083A2.179,2.179,0,0,0,53.112,58.1Zm-.937,2.4c-.625.1-.833-.1-.833-.312a1.922,1.922,0,0,1,1.146-1.354s.625.521.625.729C52.9,59.764,52.8,60.389,52.174,60.493Zm29.159,7.915v.937h1.354v4.374h.937V69.345h1.354v-.937Zm-1.354.1c-.208,0-.521-.1-1.041-.1H77.48v5.207h.937V71.636h.625a2.311,2.311,0,0,0,.937-.1c.208,0,.312-.1.521-.208a1.04,1.04,0,0,0,.417-.521,2.03,2.03,0,0,0,.1-.833,1.759,1.759,0,0,0-.312-1.041C80.4,68.72,80.188,68.511,79.979,68.511Zm-.208,1.874c-.1.1-.208.208-.312.208-.1.1-.417.1-.729.1h-.521V69.24H79.25a.789.789,0,0,1,.417.208.78.78,0,0,1,.1.521C79.875,70.178,79.875,70.282,79.771,70.386ZM38.636,61.951a.658.658,0,0,0,.417-.833,10.123,10.123,0,0,0-3.228,1.874c-.312.312.1.625.208.625A16.214,16.214,0,0,1,38.636,61.951ZM29.16,68.407h-.937v5.207h3.124v-.833H29.16Zm7.5,2.5a.813.813,0,0,0,.417-.417,1.48,1.48,0,0,0,.208-.625,1.321,1.321,0,0,0-.1-.625,1.438,1.438,0,0,0-.312-.417.8.8,0,0,0-.521-.208h-2.6v5.207h2.708a1.48,1.48,0,0,0,.625-.208,1.04,1.04,0,0,0,.417-.521,1.544,1.544,0,0,0,.1-.729,2.451,2.451,0,0,0-.208-.833C37.074,71.115,36.866,70.907,36.658,70.907ZM34.575,69.24h1.354c.1,0,.312.1.312.208.1.1.1.208.1.417s0,.312-.1.417a.541.541,0,0,1-.417.208h-1.25Zm1.874,3.228c-.1.1-.208.208-.312.208H34.679V71.323h.729c.417,0,.729,0,.833.1.1,0,.208.1.312.208s.1.208.1.417C36.554,72.26,36.449,72.365,36.449,72.469ZM24.994,68.407l-1.77,5.207h.937l.417-1.146h1.77l.417,1.146H27.7l-1.77-5.207Zm-.208,3.124.625-1.979.625,1.979Zm26.555-3.124h-1.25L48.217,70.7V68.407H47.28v5.207h.937V72.052l.729-.833,1.25,2.5h1.146l-1.77-3.228ZM24.473,59.556c.208-1.666-.937-2.083-1.458-2.083-.521-.1-.625.208-1.146.208-.1,0-.208,0-.208-.1a47.122,47.122,0,0,0-.312-5.519c-.1-.417-.1-.729.1-.833.208-.208.521,0,.625-.1a.144.144,0,0,0,0-.208s-1.354-2.4-1.458-2.5a.144.144,0,0,0-.208,0l-.625,1.146a34.731,34.731,0,0,1,.729,3.853,40.7,40.7,0,0,1,.312,4.27c-.1,1.25-1.25,1.146-1.25,1.041a9.385,9.385,0,0,0,.208-1.354,2.415,2.415,0,0,0-2.4-1.874c-1.562-.1-2.812,1.354-3.124,1.77a5.735,5.735,0,0,0-.937,1.458,2.277,2.277,0,0,0-1.666-.729c-.833.1-1.25.312-2.291,1.354-.937.833-2.291,3.02-3.645,2.916s-.937-2.291-.937-2.291a8.136,8.136,0,0,0,2.916-1.146C8.749,58.1,9.894,57.056,10,56.119c.1-.729-.417-1.25-1.25-1.354-.937-.1-1.354.1-1.77-.208-.208-.1,0-.625.312-.937.937-1.041,1.562-1.146,1.77-1.146.312,0,0,.417.417.417.417.1.521-.208.625-.833.1-.729-.1-1.146-.625-1.041a4.146,4.146,0,0,0-2.4,1.146,4.325,4.325,0,0,0-1.146,2.4c-.1.833.312,1.25,1.146,1.458s1.458-.1,1.666.312c.208.312-1.562,1.979-4.061,2.4a3.7,3.7,0,0,1-3.437-1.354c-.729-.833-.208-2.083-.1-2.5.312-.729.937-2.187.208-1.666S-.624,56.431.313,57.889c1.354,1.979,4.166,1.874,4.166,1.874a6.294,6.294,0,0,0-.625,1.874,1.659,1.659,0,0,0,1.458,1.77c1.25,0,1.874-.729,3.02-1.77a21.5,21.5,0,0,1,2.6-2.187c.729-.312,1.562.417,1.562.417v.417a2.119,2.119,0,0,0,.1.521l.417-.417c1.458,1.041,3.02.521,3.957.312a21.571,21.571,0,0,0,3.332-.937c.312-.1.625-.1.729-.208.312-.1.417.625.729.937a1.406,1.406,0,0,0,1.041.521A1.651,1.651,0,0,0,24.473,59.556Zm-8.123-.208c-.729.208-1.979.521-2.187-.208a3,3,0,0,1,.625-1.041c.625-.833,1.562-1.562,2.4-1.354a2.168,2.168,0,0,1,1.562,1.146C18.746,58.41,17.7,58.931,16.351,59.347Zm6.457.208c-.312-.208-.312-.625-.208-.625a.5.5,0,0,1,.625.208C23.432,59.347,23.12,59.868,22.807,59.556Zm-1.25,2.291a.63.63,0,0,0,.312-.625,7.519,7.519,0,0,0-2.4,1.458c-.312.208.1.417.1.417A17.978,17.978,0,0,1,21.558,61.847Zm.312,10.1L20,68.407h-.833v5.207H20V70.178l1.874,3.437h.937V68.407H21.87ZM48.529,60.076c0-1.77-1.979-1.874-1.979-1.874a3.39,3.39,0,0,0,.729-2.083,3,3,0,0,0-.833-2.5,8.165,8.165,0,0,0-1.041,3.02c-.208.937-.625,1.041-.625,1.041-.417.312-1.146.625-3.541.937-2.291.312-3.645-.729-4.166-1.77s-1.146-7.81-1.25-8.123c-.1-.417-.208-.208-.312-.1a17.753,17.753,0,0,0-.208,3.124c.1,1.25.521,2.812.625,3.853a2.334,2.334,0,0,1-1.666,2.5c-.521.1-.625.312-.625.312s-.208,1.146-.208,1.25c.1.1,1.77,0,1.979.1.208,0,.729.1.521.417a5.732,5.732,0,0,1-3.645,1.979,6.18,6.18,0,0,1-2.4,0,2.321,2.321,0,0,1-1.458-1.041c-1.146-1.77.312-3.645.1-3.853-.312-.521-1.458,1.562-1.458,2.6a3.626,3.626,0,0,0,1.77,3.02,5.972,5.972,0,0,0,4.79,0c2.6-1.146,3.332-3.02,3.228-3.541a1.067,1.067,0,0,0-.833-.729c-.208,0-.208-.208-.1-.417.1-.1.208-.208.521,0A4.968,4.968,0,0,0,40.2,60.076a10.144,10.144,0,0,0,3.437-.521c.208-.1,1.041-.625,1.146,0a2.362,2.362,0,0,0,2.083,2.291C47.28,61.742,48.529,61.951,48.529,60.076Zm-2.187-4.27c.1-.1.417.417.208.833s-.417.729-.729.521C45.509,56.848,46.03,55.911,46.343,55.807Zm.208,4.374c-.208-.1-.625-.521-.417-.729.1-.1,1.25,0,1.354.625C47.592,60.389,46.759,60.389,46.551,60.18ZM45.509,71.948l-1.874-3.541H42.8v5.207h.833V70.178l1.77,3.437h.937V68.407h-.833v3.541Zm-5.936-3.541L37.8,73.614h.937l.417-1.146h1.77l.417,1.146h1.041l-1.77-5.207Zm-.208,3.124.625-1.979.625,1.979Z" transform="translate(0.022 -48.092)" fill="#fff"/></g></g></svg>