<svg xmlns="http://www.w3.org/2000/svg" width="67.29" height="80.882" viewBox="0 0 67.29 80.882"><g transform="translate(-0.025 -0.023)"><g transform="translate(0.025 0.023)"><path d="M42.538,27.885S18.575,14.11,5.9,18.957C-6.782,23.8,4.493,49.178,7.946,58.719a190.072,190.072,0,0,1,5.629,19.116s4.694-3.282,25.358-8.3S64.46,57,64.46,57C72.76,43.549,42.538,27.885,42.538,27.885Zm-.663,29.133C38.116,60.777,23.082,69.23,18.15,62.886c-5.544-7.143-4.116-19.49-4.116-19.49a8.88,8.88,0,0,1,6.582-7.16s5.1-2.568,15.391,4C45.752,46.44,44.936,53.957,41.875,57.019Z" transform="translate(-0.025 -14.879)" fill="#fff"/><path d="M50.838,9.985S26.875-3.79,14.2,1.057C1.518,5.9,12.793,31.278,16.246,40.819a190.072,190.072,0,0,1,5.629,19.116s4.694-3.282,25.358-8.3S72.76,39.1,72.76,39.1C81.06,25.632,50.838,9.985,50.838,9.985Zm5.68,30.528c-5.408,5.408-21.14,10.34-21.14,10.34s-8.47,3.708-10.8-.816a50.907,50.907,0,0,1-3.4-8.572C17.419,29.373,17.9,20.8,17.9,20.8c1.395-13.521,19.592-7.177,19.592-7.177,14.32,4.456,20.545,14.1,20.545,14.1S62.148,34.884,56.518,40.513Z" transform="translate(-6.913 -0.023)" fill="#fff" opacity="0.64"/></g><g transform="translate(2.362 61.381)"><path d="M353.1,378.857h1.922V362.7l-1.242.68s-.646.034-.646.884Z" transform="translate(-295.39 -362.377)" fill="#fff"/><path d="M208.6,367.314s-1.735.731-1.854,1.293,0,6.548,0,6.548h-5.578v-5.748s.442-2.3-2.687-2.3-7.636,1.531-9.32,4.133c0,0-.527-1.531-1.361-1.888v5.867h-3.01V360.8a6.093,6.093,0,0,0-1.8,1.088v13.3a1.678,1.678,0,0,0,1.48,2.007H187.8a8.486,8.486,0,0,1-.6,3.129,4.655,4.655,0,0,0,2.092-3.129h17.364s1.922.323,1.973-2.177C208.654,372.535,208.6,367.314,208.6,367.314Zm-9.2,3.3v4.575h-9.643c.646-5.068,6.395-6.038,8.112-6.038C199.606,369.15,199.4,370.613,199.4,370.613Z" transform="translate(-154.192 -360.8)" fill="#fff"/><path d="M120.541,379.319h2.806s3.129-1.854,3.129-7.84V363.4s-1.854.6-1.888,1.122v7.6a5.3,5.3,0,0,1-.561,2.857,64.985,64.985,0,0,0-3.452-7.517,3.318,3.318,0,0,1-.323-2.857s-2.058.85-1.037,3.895c1,3.061,3.418,7.551,3.861,8.674A13.324,13.324,0,0,1,120.541,379.319Z" transform="translate(-101.046 -362.958)" fill="#fff"/><path d="M17.67,414.61H27.993v-5.272a4.722,4.722,0,0,1,1.922-1.037v6.276a1.909,1.909,0,0,1-2.126,2.092H17.143a3.72,3.72,0,0,1-3.1-2.942c-.85-2.806.527-4.218.527-4.218S14.966,414.61,17.67,414.61Z" transform="translate(-13.77 -400.222)" fill="#fff"/><path d="M64.3,397.4s-.051-.6.8-.6h1.088v1.173s.136.833-.884.85c-1.054.017-.986.017-.986.017Z" transform="translate(-55.704 -390.677)" fill="#fff"/><path d="M49.2,397.4s-.051-.6.8-.6h1.088v1.173s.136.833-.884.85c-1.054.017-.986.017-.986.017Z" transform="translate(-43.172 -390.677)" fill="#fff"/><path d="M324.3,378s-.051-.6.8-.6h1.088v1.173s.136.833-.884.85l-1,.017Z" transform="translate(-271.485 -374.577)" fill="#fff"/><path d="M309.2,378s-.051-.6.8-.6h1.088v1.173s.136.833-.884.85c-1.054.017-.986.017-.986.017Z" transform="translate(-258.953 -374.577)" fill="#fff"/></g></g></svg>